<?xml version="1.0" encoding="utf-8"?>
<!-- Generator: Adobe Illustrator 23.1.1, SVG Export Plug-In . SVG Version: 6.00 Build 0)  -->
<svg version="1.1" id="Layer_1" xmlns="http://www.w3.org/2000/svg" xmlns:xlink="http://www.w3.org/1999/xlink" x="0px" y="0px"
	 viewBox="0 0 308.655 89.881" enable-background="new 0 0 308.655 89.881" xml:space="preserve">
<g>
	<path fill="none" stroke="#000000" stroke-miterlimit="10" d="M154.327,71.044c0-28.833-23.374-52.207-52.207-52.207
		c-14.417,0-26.104,11.687-26.104,26.104c0,7.208,5.843,13.052,13.052,13.052"/>
	<path fill="none" stroke="#000000" stroke-miterlimit="10" d="M102.589,59.558c0-28.833-23.374-52.207-52.207-52.207
		c-23.067,0-41.766,18.699-41.766,41.766c0,18.453,14.959,33.413,33.413,33.413c14.763,0,26.73-11.967,26.73-26.73"/>
	<path fill="none" stroke="#000000" stroke-miterlimit="10" d="M154.327,71.044c0-28.833,23.374-52.207,52.207-52.207
		c14.417,0,26.104,11.687,26.104,26.104c0,7.208-5.843,13.052-13.052,13.052"/>
	<path fill="none" stroke="#000000" stroke-miterlimit="10" d="M206.065,59.558c0-28.833,23.374-52.207,52.207-52.207
		c23.067,0,41.766,18.699,41.766,41.766c0,18.453-14.959,33.413-33.413,33.413c-14.763,0-26.73-11.967-26.73-26.73"/>
</g>
</svg>
