<?xml version="1.0" encoding="utf-8"?>
<!-- Generator: Adobe Illustrator 23.1.1, SVG Export Plug-In . SVG Version: 6.00 Build 0)  -->
<svg version="1.1" id="Layer_1" xmlns="http://www.w3.org/2000/svg" xmlns:xlink="http://www.w3.org/1999/xlink" x="0px" y="0px"
	 viewBox="0 0 1080 1080" style="enable-background:new 0 0 1080 1080;" xml:space="preserve">
<style type="text/css">
	.st0{
		fill:none;
		stroke:#000000;
		stroke-miterlimit:10;
		stroke-dasharray:11000;
		<!-- stroke-dashoffset:11000; -->

		<!-- transition: 2s ease-in-out; -->
		animation: draw 2s ease-in-out;
		animation-fill-mode: forwards;
	}

	@keyframes draw {
		0% {
			stroke-dashoffset:11000;
		}
		100% {
			stroke-dashoffset:0;
		}
	}
</style>
<path class="st0 path" d="M539.27,948.82c-15.7,0.29-6.28-2.52,7.96-2.13c84.43-4.46,167.72-33.97,234.09-87.69l0,0.05
	c0.66-0.13,1.07-0.57,2.35-1.76c54.1-43.12,97.96-101.05,123.05-166.46l-0.01,0.02c0.77-0.98,2-3.56,4.04-10.51l-0.05,0.09
	c6.21-1.61,36.01-144.4,19.46-100.03c-57.52,105.58-110.51,93.53-133.35,123.89c-4.85,5.85-17.59,7.58-16.45,14.11
	c1.7,3.86,5.15,6.74,2.72,12.73c-24.12-61.63-72.63,28.73-22.79,16.39c2.33-2.35,5-9.51,1-12.17c-1.42,3.47-7.1,9.15-11.73,3.49
	c-6.53-7.58,6.36-22.19,14.07-11.31c-20.37-7.18-11.76,25.72-3.92,3.33c11.3,4.37,6,23.36-8.15,22.08
	c-9.22-0.98-12.95-10.09-20.19-16.17c5.69-0.92,1.21-7.12-6.16-3.3c-0.26,0.02-4.28,17.76-4.42,7.63
	c6.07-13.25-13.31-33.03-23.02-11.6c0.06,5.43-1.67,13.2,6.44,2.53c1.54-1.11,10.88,4.54,5.15,5.62c-11.21-2.65,0.69,8.7-4.39,8.5
	c-31.17-12.37,25.23-41.09-10.29-60.16l0.04,0.02c-19.18-8.27-25.78,30.69-1.87,18.87c5.07-6.64-15.86,3.15-6.87-11.03
	c-1.21,11.52,12.33-2.32,9.45,10.68c-7.63,10.1,0.94,7.55-13.96,7.31c-10.44,12.05-24.68-26.38-37.78,10.15
	c7.85,38.43,39.5-17.01,11.35-0.81c5.67-0.42,6.45,14.64-0.2,3.04c-12.51,1.41,3.39-17.85,13.24-5.22c3.33,4.62,1.1,8.08,0.24,13.68
	c8.23,5.15,9.83,13.14,12.95,23.33c-13.24-14-37.24-1.61-27.8,19.87c3.86,10.92,27.12,9.13,18.34-5.08
	c-4.33-8.48-7.62,13.24-7.94,1.63c-8.46-6.94,13.4-13.19,12.49,5.8c1.6,8.75-23.83,12.64-25.6,3.18
	c-0.91-26.95-33.53-27.24-40.22-3.82c-3.09,18.84,24.93,27.35,27,8.48c-9.69-10-5.54-6.3-10.04,3.91
	c-4.39,3.99-11.19-6.59-2.16-3.31c-6.9-14.84,19.42-12.22,14.82,5.78c-8.41,17.55-34.43,2.44-44-10.05
	c-9.35-11.09-8.18-29.76-23.82-36.65c-29.35,0.87-2.78,44.73,6.46,15.16c-1-9.67-13.44,17.22-15.94-3.72
	c7.43,10.88,6.86-1.5,12.67-2.04c11.85,4.02,1.03,10.34,4.73,20.78c-3.08-1.66-2.06,0.9-5.43,1.21c-0.15-5.41-6.29-1.98-13.52-6.68
	c0,0,0.02,0.02,0.02,0.02c-32.87-45.13-115.18,37.3-66.43,83.83c54.12,52.32,95.38-42.12,45.59-38.64
	c-2.95-1.88-8.56,23.74-7.25,5.78c13.78-34.89,66.54,27.63,0.88,50.09c-43.34,7.03-71.57-44.68-50.84-81.77
	c-0.01-10.63,56.99-44.56,30.73-34.79c4.1-5.69,8.74-48.03-21.16-47.33c-17.8,1.21-18.91,35.7,3.67,25.28
	c4.57-3.29,1.61-13.41-3.29-9.85c1.04,2.34-1.34,7.27-5.55,4.5c-0.59-4.72,9.62-16.02,13.92-0.16c9.67,21.64-36.84-5.76-34.51,24.78
	c12.27,25.12,32.2-10.95,7.66-2.02c-0.25,5.49,2.92-3.98,5.57,0.68c-2.95,0.98,4.43,5.08-3.18,6.4c-9.31,0.32-4-15.07,4.09-11.97
	c6.16,2.95,16.54,8.05,8.27,14.46c-7.4,7.88-25.72,2.63-33.92-6.51c-32.42-50.06-100.11-42.77-94.39-1.36
	c-25.49,25.07,12.47,66.04,43.62,55.07c58.53-23.2-7.44-78.73-10.16-32.14c-1.01-0.48-0.78,0.13-2.37-2.18
	c-4.5-43.32,75.84-2.44,18.9,35.53c-28.27,13.22-60.59-11.59-62.73-43.13c-8.79,0.08-19.88,1.32-27.97-6.76
	c-24.54-23.34,13.11-37.15-14.15-35.9c-77.19-12.12-50.44-118.64,12.72-101.61c-2.53-2.32-13.67-41.28-4.59-18.9
	c7.05,26.86,16.6,16.58,32.87,36.49c7.54,27.2,70.59,29.75,56.2,32.83c-16.94-1.47-35.13-9.59-51.39-16.93
	c-0.57,8.84-7.4,25.29-20.93,21.5c-1.52-1.04-5.81-1.16-4.46-4.46c11.7-4.87,5.65-26.64-9.9-15.64
	c-11.28,12.67,0.4,35.06,18.05,33.82c9.13,5.5,17.62-57.26,52.2-5.66c7.88-5.53,20.88-10.76,29.33,0.06
	c0.14,0.28,6.32,7.94,1.14,6.54c-3.42-6.7-22.72-1.08-9.34,6.88c10.39,0.05,24.02-3.42,32.05,7.22
	c4.94,9.84,14.91,43.03,31.42,29.13c-4.88-10.48,4.59-30.12-7.32-37.07c7.22-6.53-8.31-14.94-15.38-18.23
	c8.58-5.6,20.47,18.2,23.03,8.29c3.76-31.81,31.74-31.13-9.47-49.16c2.15-3.96,21.73,6.06,26.56,14.94
	c32.91,5.82-7.65-45.22-64.11-24.95l0-0.03c-51.47,19.11-138.59-21.4-66.43-70.3c-25.62-15.77-36.05-0.72-46.86,26.04
	c-3.22-12.77,13.85-28.95,24.95-38.06c-6.61-11.55-6.06-28.81,6.35-38.45c0.78-0.89,13.98-7.27,10.82-1.31
	c-22,13.89,12.79,28.64,7.87-1.95c16.33,10.48-19.76,38.53-18.39,10.18c-32.76,28.05,41.34,68.32,58.74,8.4
	c-0.82-116.71-129.23-74.13-124.49-0.06c-10.25,34.7,2.58,24.11,13.84,50.05c5.85,13.9,2.83,29.11-5.65,41.95
	c-30.87,35.18-82.36-1.78-55.85-35.11c1.31-0.8,3.94-2.99,3.35,2.59c-2.84,10.42,11.36,17.12,15.79,3.78
	c-0.38-1.93-1.42-10.91,3.89-1.03c8.84-4.86-4.81,22.14-19.62,10.28c-12.65-16.66-7.97,22.06,11.42,27.39
	c21.33,11.43,50.47-13.25,46.88-37.91c-18.59-48.99-21.77-28.47-55.28-22.57c-8.33,0.53-14.51-5.63-23.06-5.32
	c-16.2,12.41-29.65,33.48-26.2,56.24c0.18,5.72,5.7,25.05,0.06,13.51c-6.64-7.85,0.36-54.47-5.62-26.13
	c0.29,2.21-2.03,9.5-2.22,1.65c2.74-16.37-0.66-3.13-17.01-8.41c-8.9-3.49-24.38-20.13-11.65-28.28c1.44,4.92,5.48,11.29,13.71,9.69
	c-0.91,5.77-8.72,1.01-14.73-2.83c-2.35,12.94,17.76,25.73,30.71,16.35c40.87-24.94,2.82-74.45-37.33-46.62l0,0
	c-7.15,4.94-16.66,12.76-21.13,22.05c-27.22,38.88,22.6,110.6,8.95,74.6c2.8,0.88,1.99,6.76,6.98,3.89
	c5.91-4.72,23.82-7.75,6.12,5.97c5.02-15.5-20.76,6.44-9.62,31.65c0.36,2.25,12.39,14.71,12.19,8.18
	c-3.02-1.77-11.44-8.96-8.12-13.1c1.62,0.13,0.31,3.11,5.88,8.08c7.87,4.73-2.45-4.13,0.71-7.07c8.14,12.56,0.85-17.84,42.86-34.52
	c59.13-17.95,87.05,44.01,51.03,75.89c-60.1,29.47-46.45-70.49-34.34-25.42c2.18,2.54,7.85,2.33,10.38-2.08
	c4.88,0.12-6.7,17.42-16.18-1.16c-10.71,17.85,24.99,45.32,42.46,22.08c39.23-59.38-42.1-94.59-80.9-46.27
	c-23.89,38.01-11.97,119.22,78.05,105.2c-7.03,11.14-53.54-4.62-39.3,8.68c71.78,99.87,187.44,163.35,311.12,168.43
	c3.23,1.76,22.88-0.54,13.5,2.95c-88.19,0.39-175.38-32.14-245.74-86.03c-32.94-25.84-61.15-54.98-84.86-89.88
	c-30.67-15.04-46.3-38.45-46.44-71.11c4.35-16.12-27.71-11.97-15.55-48.86c-2.55-11.1-17.41-25.59-17.73-41.37
	c-7.84-30.95,10.18-48.54,6.38-75.68c8.18-369.77,442.99-537.38,698.35-286.8C1075.53,512.03,894.42,938.67,539.27,948.82z
	 M459.32,351.85c-9.52,17.03,3.94,34.05-14.06,47.98c11.05-3.54-6.97,3.23-5,25.99c-3.38-6.22-2.8,1.81-7.24,5.88
	c5.12-8.13-2.61-45.42-12.6-55.55c12.82-10.91-2.32-84.64-37.42-56.12c4.29-9.05,13.72-9.75,23.66-8.29
	c4.45-0.89-8.64-37.5-24.13-17.1c-3.34-1.8-8.08,41.22-3.54,38.16c-0.99-1.66,3.54-16.05,3.69-7.02
	c-3.72,15.44-5.7,32.69-0.83,50.35c-2.78,0.61-2.21,18.85-4.73,4.29c2.59-12.84-17.56-119,25.32-90.11
	c12.46,27.2,27.8,53.75,26.51,86.35c1.73,7.71,3.3,12.83,6.85,24.36c2.82,18.14,2.23,0.49,15.86-15.05
	c-4.29-26.23,23.92-58.44-7.59-74.93c-2.68-3.16,0.98-6.77,3.83-10.73c-3.45-5.3-2.5-13.14-5.14-20.54
	c-10.02-4.25-24.82-1.79-35.99-9.22c-14.23-12.33-41.16-23.88-1.65-31.73c16.04-3.83,37.63,1.1,0.24-13.05
	c-16.96-8.77-22.2-12.89-28.38-30.93c-6.59-4.26-21.55-12.25-12.31-23.38c3.2-9.65,52.68,19.33,46.92,9.35
	c-5.47-7.45,2.34-30.63-12.5-26.5c-164.38,54.6-286.04,220.29-275.61,398.53c21.1-21.8,24.08-19.56,54.92-24.24
	c1.39-15.41,10.44-26.38,22.56-36.95c62.46-45.07,68.07,31,83.79-9.66c21.87-29.17,63.97-50.44,97.99-25.99
	c7.56,3.53-4.31-27.73,1.58-37.67c3.24,5.7,5.75,75.17,13.62,60.38c1.02,0.27-1.35,14.5,3.48,4.24c3.12-6.63-1.54,6.93,4.34,23.93
	c3.41,9.19-4.15,27.55-11.01,36.5c-0.39,0.84-10.85,6.26,0.54,10.75c20.82-21.12,53.59,3.22,38.46,28.99
	c19.31,0.26,20.12-1.41,38.29,8.32c-6.68-18.83-31.56-20.51-28.42-30.04c33.96,15.2,47.53,60.81,67.84,95.11
	c9.37,18.93-6.88,52.02,20.67,61.9c22.62,32.77,110.56-39.81,107.62-71.46c-4.92-9.6-17.71-83.78-17.06-30.91
	c-11.66-60.74-7.8-134.9-9.61-206.91c-10.04-25.38-20.25-53.22-32-80.18c0.94,6.37-5.09,11.66-1.72-4.42
	c-5.52-0.35-0.09-0.71-4.83-8.59c-5.65-1.55-49.87-38.92-45.03-8.97c-3.91-24.34-3.04-9.49-34.55-16.48
	c21.36-4.78,48.98,4.9,68.08,12.82c-4.17-5.76-12.94-34.21-15.57-17.44c-1.11-2.92,0.19-7.89-2.16-12.78
	c-14.1-17.35-43.72-23.48-62.76-34.61c-1.61,1.53,1.25,4.76-0.15,9.06c-0.75,0.25-1.87-8.83-2.48-3.82c2.02,8.8-2.25-0.34-4.3-7.43
	c-10.43,3.12-23.64,0.74-35.36,4.59c1.91,2.34,4.81,5.69,3.6,10.6c-2.68-18.59-40.01-11.31-56.61-3.6
	c2.84,17.02,36.84,12.4,56.03,6.41c-3.78,7.02-12.45,5.27-38.13,8.65c2.03,13.52,59.83,17.6,74.02,7.09
	c10.13-1.78-10.2,6.66-12.41,8.29c6.88,5.63,16.16,8.31,26.52,12.29c0.15,0.85,0.05-0.01,0.84,2.09
	c-9.69,5.72-31.38,5.15-47.08,13.08c-6.89,14.44,30.99,8.02,44.14,5.89c-4.17,6.54-38.3,0.89-23.51,12.93
	c-1.3,0.5-0.86,1.11-3.54-0.65c-8.03-5.77,4.63,15.42-3.69,27.17l0.04-0.02C459.85,350.97,459.45,351.21,459.32,351.85z
	 M218.67,552.73c10.44,8.34,30.56,6.36,42.38-3.85c0,0-0.01,0.01-0.01,0.01c11.53-6.86,17.58-33.88,11.54-48.11l0.03,0.01
	c-22.26-42.17-91.58-11.28-91.38,31.49c9.61,6.81,18.21,12.17,19.32,29.89c-0.1,2.27,7.28-3.5,11.53-9.26
	c-14.28-15.34-2.56-50.18,22.77-40.06c0,0-0.23-0.04-0.22-0.06c0.59,3.05,9.57,7.02,7.47,12.45c-3.48-1.85-8.02-3.4-13.76-0.41
	c-1.27-4.65,7.2-2.62,8.76-5.11c-19.04-18.68-42.33,19-19.47,32.24l-0.04-0.06c0.16,0.6,0.58,0.85,1.17,0.89L218.67,552.73z
	 M373.18,670.89c-16.28-13.63-37.97,11.53-23.62,28.71c5.52,7.4,25.03-2.59,13.28-10.68c-8.23,0.91-5.96-5.24,3.39-1.39
	c7.24,5.32,1.47,18.27-9.31,17.12c-12.79,2.8-9.74-17.61-21.45-12c-29.17,3.91-36.05-49.1-5.99-41.49
	c8.19,3.3,6.81,13.51,3.48,20.53c16.35,3.37,19.47-22.71,9.51-34.41c-69.24-62.93-125.05,72.96-32.18,82.14
	c4.46-0.17,4.81-0.57-1.45-4.4c4.69-0.23,6.47,1.89,14.54,1.46c-3.09-1.76-7.15-1.74-12.34-3.57c3.49-2.44,9.51,1.09,15.55,0.65
	c-16.31-4.49,19.93-2.96,25.59,0.75c-77.87,2.99-9.61,84.15,6.79,32.13c0.59-13.11-18.54-16.72-18.21-0.5
	c9.32-9.32,18.12,9.95,0.98,6.06c-0.9,2.06-24.37-20.21,13.14-19.24c2.4,1.69,4.66,2.31,7.88-2.73c16.18-17.09,44.17-19,65.74-7.65
	c2.51-0.73-10.18-8.51-2.51-7.09c8.69,7.61,12.03,18.64,24.56,26.54c3.22,2.92,22.11,8,7.08-1.21c23.08,3.8-14.88-8.01-19.28-16.55
	c-7.82-10.51-2.56-6.1,4.57-0.25c-0.18-6.68-1.31-16.04-9.47-21.06c-10.93-6.84-53.11,1.21-22.31-20.45
	c-11.89-6.86-33.61,5.51-16.44,20.49c0.9,0.6,5.33,3.79,1.2,3.45C380.96,700.19,387.36,679.59,373.18,670.89z M475.92,597.75
	c0.13-0.01-0.07,0.42,0.53,0.42c0.01-0.35-0.18-0.47-0.58-0.35C476.11,593.43,468.67,590.63,475.92,597.75z M680.33,684.33
	c20.94-9.41,32.66,11.68,28.01,33.21c6.34,0.06,12.5,3.17,15.34,11.26c10.47,2.77,12.7,3.92,17.9-13.89
	c-16.18-9.63-41.61-33.16-31.74-52.82c2.69,32.44,22.57,53.88,56.43,46.37c9.14,3.35,8.56,6.87,22.3-2.53
	c54.64-33.05,36.89-131.38-28.61-137.01c-1.26-0.8-2.06-0.82-4.83-0.93l0,0c-16.48-7.3-56.67,5.09-71.08,20.12
	c-19.88,17.55-35.43,46.73-33.06,75.33c3.86,18.84,2,47.39,27.08,46.25C671.44,703.93,671.86,690.55,680.33,684.33z M390.43,202.55
	c-0.1,0.29-10.09-8.19-7.3-0.18c19.29,33.39,64.03,25.75,56.5,30.49c0.51,0.58,4.58-0.78,4.65,1.14
	c-16.01,4.35,18.47,2.53,30.56-0.8c16.31,3.67,31.66,14.92,49.45,20.55c-11.53-25.29-47.16-33.2-69.49-52.26l0.03,0.03
	c-9.35-2.38-18.69-13.54-32.66-10.54C430.77,205.31,406.46,213.51,390.43,202.55z M470.64,597.26
	c-15.68-18.06-38.56-4.23-55.75-20.08c-7.82-8.17,4.91-23.35,10.71-11.58c0.55,3.07-5.89,8.65-6.54,2.83
	c5.63-0.94-0.24-8.07-3.47,0.3c-1.16,16.18,25.69,17.57,16.54-8.91c-15.66-17.66-34.32-11.82-35.62,9.78
	c-19.18-24.16-55.71-7.97-61.29,20.13c11.61,81.51,125.2,0.31,161.74,46.08C491.78,623.9,482.19,608.46,470.64,597.26z
	 M417.55,156.41c0,0-0.17-0.16-0.17-0.16c-1.02-6.48-24.13-15.55,4.92,15.47c-13.31-9-12.9-4.17-5.32,12.67
	c21.39,3.75,37.8,15.4,57.16,26.37c-12.05-14.19-15.76-19.66-31.15-29.86c0.31,0.07,0.43-7.03-1.61-1.45
	C440.42,174.38,428.08,162.23,417.55,156.41z M486.33,660.82c-2.4-3.5-26.93,45.75-3.96,31.16
	C533.26,667.56,496.18,641.27,486.33,660.82z M480.62,293.57c0.84-0.03,3.8-0.43,6.9-1.29c-14.43-6.85-56.12-32.22-35.12,7.54
	C460.54,299.34,469.72,294.61,480.62,293.57z M365.86,174.64c-7.29,9.24,18.54,21.64,30.29,27
	C450.58,217.15,406.55,170.68,365.86,174.64z M875.06,647.66c106.01-81.02,53.65-234.41-5.8-331.59
	c-47.97-76.32-161.55-164.89-247.72-167.52c-3.08-23.8-256.51-17.77-191.67,13.32c33.85,25.73,35.72,45.45,83.65,72.83
	c13.9,7.51,7.07,21.64,31.07,31.47c10.61,11.43,15.77,30.48,26.34,43.81c13.32,2.91,27.75,59.85,36.18,77.9
	c20.99,15.31-4.22,166.78,30.53,239.07c11.65,50.42,8.18-5.76,36.53-34.69c31.94-34.46,88.23-40.09,126.44-7.99
	c24.11,26.41,31.5,66.31,14.14,99.46C826.96,687.31,863.29,659.8,875.06,647.66z M606.43,780.95c4.07-25.48,23.28-23.61,42.28-20.84
	c3.86-19.36,28-9.26,23.72-19.61c-6.15-14.03-20.05,13.18-31.71-11.13c-5.54-38.25,24.68-1.81,4-57.35
	c-39.1,81.82-68.94,68.02-57.39,86.2C586.99,762.9,611.28,806.37,606.43,780.95z M518.95,719.29c4.28,18.36,31.2,44.47,48.59,24.51
	c12.71-4.02,7.79,15.95,34.56-12.72c16.31-8.64,56.02-90.16,35.41-63.22c-14.56,20.01-36.68,36.33-54.66,54.53
	c-5.08,3.6-10.85,17.09-20.75,13.76c-2.84,3.2-4.25,7.83-10.79,7.29C546.15,747.35,519.99,706.58,518.95,719.29z M472.92,726.95
	c-0.22,1.74,0.76,10.66,5.72,5.52c-1.43-3.82-3.13-10.4-0.6-15.57c3.22-8.99,13.21-8.65,11.85-20.42c-0.55-1.55,1.2-4.82-3.3-2.97
	C462.69,700.12,476.47,696.74,472.92,726.95z M522.65,734.67c-1.65,26.96,6.1,16.69,32.45,22.25
	C544.68,752.06,531.75,746.69,522.65,734.67z M503.92,698.34c4.19-36.33-26.51,7.19-1.31,7.71
	C504.34,705.46,503.93,703.19,503.92,698.34z M512.36,695.64c0.04,0,0.09,0,0.13,0c-1.82-2.97,3.17-30.65-7.4-16.11
	C505.4,683.88,509.18,735.61,512.36,695.64z M545.96,734.99c-0.67,10.24,19.2,3.68,9.34-5.45
	C552.42,727.54,545.92,729.11,545.96,734.99z M391.57,559.39c-0.78-3.3-6.51-11.81-15.65-4.02
	C380.17,554.94,387.14,559.65,391.57,559.39z M565.2,726.41c-5.32,0.05-3.24,10.98,3.76,6.09
	C570.5,729.97,568.92,727.1,565.2,726.41z M575.09,722.28c-3.84-0.17-1.91,8.75,2.39,2.47
	C577.31,724.02,577.11,723.34,575.09,722.28z M544.01,729.28c-0.34-2.08-6.51-1.03-4.28,2.67
	C541.46,733.37,543.23,732.17,544.01,729.28z M464.08,750.31c-0.15-1.35-4.19-3.73-6.08-2.19
	C458.59,748.55,463.16,754.55,464.08,750.31z M536.41,725.76C535.53,727.26,534.79,727.2,536.41,725.76
	C537.08,723.3,530.09,724.11,536.41,725.76z M532.09,721.14C531.71,722.33,531.09,722.36,532.09,721.14
	C532.76,720.21,528.02,719.79,532.09,721.14z M580.56,718.69C581.59,719.32,581.33,720.01,580.56,718.69
	C579.57,718.36,578.49,722.3,580.56,718.69z M445.23,180.81C445.71,181.12,445.77,181.33,445.23,180.81
	C444.62,180.61,444.38,183.16,445.23,180.81z M433.02,400.95C433.19,400.72,433.31,400.7,433.02,400.95
	C432.44,401.47,435.42,402.18,433.02,400.95z M344.28,511.08l-0.29-0.21l-0.04,0.34L344.28,511.08z"/>
</svg>
